  0
SECTION
  2
BLOCKS
  0
ENDSEC
  0
SECTION
  2
ENTITIES
  0
LINE
  8
0
 10
40.64
 20
128.5
 11
0
 21
128.5
  0
LINE
  8
0
 10
0
 20
128.5
 11
0
 21
0
  0
LINE
  8
0
 10
0
 20
0
 11
40.64
 21
0
  0
LINE
  8
0
 10
40.64
 20
0
 11
40.64
 21
128.5
  0
LINE
  8
0
 10
30.54
 20
123.488
 11
30.0456
 21
123.566
  0
LINE
  8
0
 10
30.0456
 20
123.566
 11
29.5995
 21
123.793
  0
LINE
  8
0
 10
29.5995
 20
123.793
 11
29.2456
 21
124.147
  0
LINE
  8
0
 10
29.2456
 20
124.147
 11
29.0183
 21
124.593
  0
LINE
  8
0
 10
29.0183
 20
124.593
 11
28.94
 21
125.087
  0
LINE
  8
0
 10
28.94
 20
125.087
 11
29.0183
 21
125.582
  0
LINE
  8
0
 10
29.0183
 20
125.582
 11
29.2456
 21
126.028
  0
LINE
  8
0
 10
29.2456
 20
126.028
 11
29.5995
 21
126.382
  0
LINE
  8
0
 10
29.5995
 20
126.382
 11
30.0456
 21
126.609
  0
LINE
  8
0
 10
30.0456
 20
126.609
 11
30.54
 21
126.688
  0
LINE
  8
0
 10
30.54
 20
126.688
 11
33.74
 21
126.688
  0
LINE
  8
0
 10
33.74
 20
126.688
 11
34.2344
 21
126.609
  0
LINE
  8
0
 10
34.2344
 20
126.609
 11
34.6805
 21
126.382
  0
LINE
  8
0
 10
34.6805
 20
126.382
 11
35.0344
 21
126.028
  0
LINE
  8
0
 10
35.0344
 20
126.028
 11
35.2617
 21
125.582
  0
LINE
  8
0
 10
35.2617
 20
125.582
 11
35.34
 21
125.087
  0
LINE
  8
0
 10
35.34
 20
125.087
 11
35.2617
 21
124.593
  0
LINE
  8
0
 10
35.2617
 20
124.593
 11
35.0344
 21
124.147
  0
LINE
  8
0
 10
35.0344
 20
124.147
 11
34.6805
 21
123.793
  0
LINE
  8
0
 10
34.6805
 20
123.793
 11
34.2344
 21
123.566
  0
LINE
  8
0
 10
34.2344
 20
123.566
 11
33.74
 21
123.488
  0
LINE
  8
0
 10
33.74
 20
123.488
 11
30.54
 21
123.488
  0
LINE
  8
0
 10
5.89999
 20
123.488
 11
5.40556
 21
123.566
  0
LINE
  8
0
 10
5.40556
 20
123.566
 11
4.95953
 21
123.793
  0
LINE
  8
0
 10
4.95953
 20
123.793
 11
4.60556
 21
124.147
  0
LINE
  8
0
 10
4.60556
 20
124.147
 11
4.3783
 21
124.593
  0
LINE
  8
0
 10
4.3783
 20
124.593
 11
4.29999
 21
125.087
  0
LINE
  8
0
 10
4.29999
 20
125.087
 11
4.3783
 21
125.582
  0
LINE
  8
0
 10
4.3783
 20
125.582
 11
4.60556
 21
126.028
  0
LINE
  8
0
 10
4.60556
 20
126.028
 11
4.95953
 21
126.382
  0
LINE
  8
0
 10
4.95953
 20
126.382
 11
5.40556
 21
126.609
  0
LINE
  8
0
 10
5.40556
 20
126.609
 11
5.89999
 21
126.688
  0
LINE
  8
0
 10
5.89999
 20
126.688
 11
9.09999
 21
126.688
  0
LINE
  8
0
 10
9.09999
 20
126.688
 11
9.59442
 21
126.609
  0
LINE
  8
0
 10
9.59442
 20
126.609
 11
10.0405
 21
126.382
  0
LINE
  8
0
 10
10.0405
 20
126.382
 11
10.3944
 21
126.028
  0
LINE
  8
0
 10
10.3944
 20
126.028
 11
10.6217
 21
125.582
  0
LINE
  8
0
 10
10.6217
 20
125.582
 11
10.7
 21
125.087
  0
LINE
  8
0
 10
10.7
 20
125.087
 11
10.6217
 21
124.593
  0
LINE
  8
0
 10
10.6217
 20
124.593
 11
10.3944
 21
124.147
  0
LINE
  8
0
 10
10.3944
 20
124.147
 11
10.0405
 21
123.793
  0
LINE
  8
0
 10
10.0405
 20
123.793
 11
9.59442
 21
123.566
  0
LINE
  8
0
 10
9.59442
 20
123.566
 11
9.09999
 21
123.488
  0
LINE
  8
0
 10
9.09999
 20
123.488
 11
5.89999
 21
123.488
  0
LINE
  8
0
 10
30.54
 20
1.8125
 11
30.0456
 21
1.89081
  0
LINE
  8
0
 10
30.0456
 20
1.89081
 11
29.5995
 21
2.11807
  0
LINE
  8
0
 10
29.5995
 20
2.11807
 11
29.2456
 21
2.47203
  0
LINE
  8
0
 10
29.2456
 20
2.47203
 11
29.0183
 21
2.91806
  0
LINE
  8
0
 10
29.0183
 20
2.91806
 11
28.94
 21
3.41249
  0
LINE
  8
0
 10
28.94
 20
3.41249
 11
29.0183
 21
3.90692
  0
LINE
  8
0
 10
29.0183
 20
3.90692
 11
29.2456
 21
4.35295
  0
LINE
  8
0
 10
29.2456
 20
4.35295
 11
29.5995
 21
4.70692
  0
LINE
  8
0
 10
29.5995
 20
4.70692
 11
30.0456
 21
4.93419
  0
LINE
  8
0
 10
30.0456
 20
4.93419
 11
30.54
 21
5.0125
  0
LINE
  8
0
 10
30.54
 20
5.0125
 11
33.74
 21
5.0125
  0
LINE
  8
0
 10
33.74
 20
5.0125
 11
34.2344
 21
4.93419
  0
LINE
  8
0
 10
34.2344
 20
4.93419
 11
34.6805
 21
4.70692
  0
LINE
  8
0
 10
34.6805
 20
4.70692
 11
35.0344
 21
4.35295
  0
LINE
  8
0
 10
35.0344
 20
4.35295
 11
35.2617
 21
3.90692
  0
LINE
  8
0
 10
35.2617
 20
3.90692
 11
35.34
 21
3.41249
  0
LINE
  8
0
 10
35.34
 20
3.41249
 11
35.2617
 21
2.91806
  0
LINE
  8
0
 10
35.2617
 20
2.91806
 11
35.0344
 21
2.47203
  0
LINE
  8
0
 10
35.0344
 20
2.47203
 11
34.6805
 21
2.11807
  0
LINE
  8
0
 10
34.6805
 20
2.11807
 11
34.2344
 21
1.89081
  0
LINE
  8
0
 10
34.2344
 20
1.89081
 11
33.74
 21
1.8125
  0
LINE
  8
0
 10
33.74
 20
1.8125
 11
30.54
 21
1.8125
  0
LINE
  8
0
 10
5.89999
 20
1.8125
 11
5.40556
 21
1.89081
  0
LINE
  8
0
 10
5.40556
 20
1.89081
 11
4.95953
 21
2.11807
  0
LINE
  8
0
 10
4.95953
 20
2.11807
 11
4.60556
 21
2.47203
  0
LINE
  8
0
 10
4.60556
 20
2.47203
 11
4.3783
 21
2.91806
  0
LINE
  8
0
 10
4.3783
 20
2.91806
 11
4.29999
 21
3.41249
  0
LINE
  8
0
 10
4.29999
 20
3.41249
 11
4.3783
 21
3.90692
  0
LINE
  8
0
 10
4.3783
 20
3.90692
 11
4.60556
 21
4.35295
  0
LINE
  8
0
 10
4.60556
 20
4.35295
 11
4.95953
 21
4.70692
  0
LINE
  8
0
 10
4.95953
 20
4.70692
 11
5.40556
 21
4.93419
  0
LINE
  8
0
 10
5.40556
 20
4.93419
 11
5.89999
 21
5.0125
  0
LINE
  8
0
 10
5.89999
 20
5.0125
 11
9.09999
 21
5.0125
  0
LINE
  8
0
 10
9.09999
 20
5.0125
 11
9.59442
 21
4.93419
  0
LINE
  8
0
 10
9.59442
 20
4.93419
 11
10.0405
 21
4.70692
  0
LINE
  8
0
 10
10.0405
 20
4.70692
 11
10.3944
 21
4.35295
  0
LINE
  8
0
 10
10.3944
 20
4.35295
 11
10.6217
 21
3.90692
  0
LINE
  8
0
 10
10.6217
 20
3.90692
 11
10.7
 21
3.41249
  0
LINE
  8
0
 10
10.7
 20
3.41249
 11
10.6217
 21
2.91806
  0
LINE
  8
0
 10
10.6217
 20
2.91806
 11
10.3944
 21
2.47203
  0
LINE
  8
0
 10
10.3944
 20
2.47203
 11
10.0405
 21
2.11807
  0
LINE
  8
0
 10
10.0405
 20
2.11807
 11
9.59442
 21
1.89081
  0
LINE
  8
0
 10
9.59442
 20
1.89081
 11
9.09999
 21
1.8125
  0
LINE
  8
0
 10
9.09999
 20
1.8125
 11
5.89999
 21
1.8125
  0
ENDSEC
  0
SECTION
  2
OBJECTS
  0
DICTIONARY
  0
ENDSEC
  0
EOF
