G04 #@! TF.GenerationSoftware,KiCad,Pcbnew,5.0.2+dfsg1-1~bpo9+1*
G04 #@! TF.CreationDate,2019-11-20T21:54:31+01:00*
G04 #@! TF.ProjectId,eurobb,6575726f-6262-42e6-9b69-6361645f7063,rev?*
G04 #@! TF.SameCoordinates,Original*
G04 #@! TF.FileFunction,Profile,NP*
%FSLAX46Y46*%
G04 Gerber Fmt 4.6, Leading zero omitted, Abs format (unit mm)*
G04 Created by KiCad (PCBNEW 5.0.2+dfsg1-1~bpo9+1) date Wed 20 Nov 2019 09:54:31 PM CET*
%MOMM*%
%LPD*%
G01*
G04 APERTURE LIST*
%ADD10C,0.200000*%
G04 APERTURE END LIST*
D10*
X74865590Y-39921000D02*
X75360020Y-40000000D01*
X71665590Y-39921000D02*
X74865590Y-39921000D01*
X71171160Y-40000000D02*
X71665590Y-39921000D01*
X70725130Y-40227000D02*
X71171160Y-40000000D01*
X70371160Y-40581000D02*
X70725130Y-40227000D01*
X70143900Y-41027000D02*
X70371160Y-40581000D01*
X70065590Y-41522000D02*
X70143900Y-41027000D01*
X70143900Y-42016000D02*
X70065590Y-41522000D01*
X70371160Y-42462000D02*
X70143900Y-42016000D01*
X70725130Y-42816000D02*
X70371160Y-42462000D01*
X71171160Y-43043000D02*
X70725130Y-42816000D01*
X74865590Y-164796500D02*
X71665590Y-164796500D01*
X75360020Y-164718190D02*
X74865590Y-164796500D01*
X75806100Y-164490930D02*
X75360020Y-164718190D01*
X76160000Y-164136970D02*
X75806100Y-164490930D01*
X76387300Y-163690940D02*
X76160000Y-164136970D01*
X76465600Y-163196510D02*
X76387300Y-163690940D01*
X76387300Y-162702080D02*
X76465600Y-163196510D01*
X76160000Y-162256050D02*
X76387300Y-162702080D01*
X75806100Y-161902080D02*
X76160000Y-162256050D01*
X75360020Y-161674810D02*
X75806100Y-161902080D01*
X74865590Y-161596500D02*
X75360020Y-161674810D01*
X71665590Y-161596500D02*
X74865590Y-161596500D01*
X71171160Y-161674810D02*
X71665590Y-161596500D01*
X70725130Y-161902080D02*
X71171160Y-161674810D01*
X70371160Y-162256050D02*
X70725130Y-161902080D01*
X70143900Y-162702080D02*
X70371160Y-162256050D01*
X70065590Y-163196510D02*
X70143900Y-162702080D01*
X70143900Y-163690940D02*
X70065590Y-163196510D01*
X70371160Y-164136970D02*
X70143900Y-163690940D01*
X70725130Y-164490930D02*
X70371160Y-164136970D01*
X71171160Y-164718190D02*
X70725130Y-164490930D01*
X71665590Y-164796500D02*
X71171160Y-164718190D01*
X99505600Y-164796500D02*
X96305600Y-164796500D01*
X100000000Y-164718190D02*
X99505600Y-164796500D01*
X100446100Y-164490930D02*
X100000000Y-164718190D01*
X100800000Y-164136970D02*
X100446100Y-164490930D01*
X101027300Y-163690940D02*
X100800000Y-164136970D01*
X101105600Y-163196510D02*
X101027300Y-163690940D01*
X101027300Y-162702080D02*
X101105600Y-163196510D01*
X99505600Y-39921000D02*
X100000000Y-40000000D01*
X96305600Y-39921000D02*
X99505600Y-39921000D01*
X95811200Y-40000000D02*
X96305600Y-39921000D01*
X95365100Y-40227000D02*
X95811200Y-40000000D01*
X95011200Y-40581000D02*
X95365100Y-40227000D01*
X94783900Y-41027000D02*
X95011200Y-40581000D01*
X94705600Y-41522000D02*
X94783900Y-41027000D01*
X94783900Y-42016000D02*
X94705600Y-41522000D01*
X95011200Y-42462000D02*
X94783900Y-42016000D01*
X95365100Y-42816000D02*
X95011200Y-42462000D01*
X95811200Y-43043000D02*
X95365100Y-42816000D01*
X95811200Y-164718190D02*
X95365100Y-164490930D01*
X96305600Y-164796500D02*
X95811200Y-164718190D01*
X74865590Y-43121000D02*
X71665590Y-43121000D01*
X75360020Y-43043000D02*
X74865590Y-43121000D01*
X75806100Y-42816000D02*
X75360020Y-43043000D01*
X76160000Y-42462000D02*
X75806100Y-42816000D01*
X76387300Y-42016000D02*
X76160000Y-42462000D01*
X76465600Y-41522000D02*
X76387300Y-42016000D01*
X76387300Y-41027000D02*
X76465600Y-41522000D01*
X76160000Y-40581000D02*
X76387300Y-41027000D01*
X75806100Y-40227000D02*
X76160000Y-40581000D01*
X75360020Y-40000000D02*
X75806100Y-40227000D01*
X100800000Y-162256050D02*
X101027300Y-162702080D01*
X100446100Y-161902080D02*
X100800000Y-162256050D01*
X100000000Y-161674810D02*
X100446100Y-161902080D01*
X99505600Y-161596500D02*
X100000000Y-161674810D01*
X96305600Y-161596500D02*
X99505600Y-161596500D01*
X95811200Y-161674810D02*
X96305600Y-161596500D01*
X95365100Y-161902080D02*
X95811200Y-161674810D01*
X95011200Y-162256050D02*
X95365100Y-161902080D01*
X94783900Y-162702080D02*
X95011200Y-162256050D01*
X94705600Y-163196510D02*
X94783900Y-162702080D01*
X94783900Y-163690940D02*
X94705600Y-163196510D01*
X95011200Y-164136970D02*
X94783900Y-163690940D01*
X95365100Y-164490930D02*
X95011200Y-164136970D01*
X96305600Y-43121000D02*
X95811200Y-43043000D01*
X106405600Y-166609000D02*
X106405600Y-38109000D01*
X65765600Y-166609000D02*
X106405600Y-166609000D01*
X65765600Y-38109000D02*
X65765600Y-166609000D01*
X106405600Y-38109000D02*
X65765600Y-38109000D01*
X71665590Y-43121000D02*
X71171160Y-43043000D01*
X99505600Y-43121000D02*
X96305600Y-43121000D01*
X100000000Y-43043000D02*
X99505600Y-43121000D01*
X100446100Y-42816000D02*
X100000000Y-43043000D01*
X100800000Y-42462000D02*
X100446100Y-42816000D01*
X101027300Y-42016000D02*
X100800000Y-42462000D01*
X101105600Y-41522000D02*
X101027300Y-42016000D01*
X101027300Y-41027000D02*
X101105600Y-41522000D01*
X100800000Y-40581000D02*
X101027300Y-41027000D01*
X100446100Y-40227000D02*
X100800000Y-40581000D01*
X100000000Y-40000000D02*
X100446100Y-40227000D01*
M02*
