M48
;DRILL file {KiCad 5.0.2+dfsg1-1~bpo9+1} date Wed 20 Nov 2019 09:54:35 PM CET
;FORMAT={-:-/ absolute / inch / decimal}
FMAT,2
INCH,TZ
T1C0.0394
%
G90
G05
T1
X2.74Y-1.975
X2.74Y-2.075
X2.74Y-2.175
X2.74Y-2.275
X2.74Y-2.375
X2.74Y-2.475
X2.74Y-2.575
X2.74Y-2.675
X2.74Y-2.775
X2.74Y-2.875
X2.74Y-2.975
X2.74Y-3.075
X2.74Y-3.175
X2.74Y-3.275
X2.74Y-3.375
X2.74Y-3.475
X2.74Y-3.575
X2.74Y-3.675
X2.74Y-3.775
X2.74Y-3.875
X2.74Y-3.975
X2.74Y-4.075
X2.74Y-4.175
X2.74Y-4.275
X2.74Y-4.375
X2.74Y-4.475
X2.74Y-4.575
X2.74Y-4.675
X2.74Y-4.775
X2.74Y-4.875
X2.74Y-4.975
X2.74Y-5.075
X2.74Y-5.175
X2.74Y-5.275
X2.74Y-5.375
X2.74Y-5.475
X2.74Y-5.575
X2.74Y-5.675
X2.74Y-5.775
X2.74Y-5.875
X2.74Y-5.975
X2.74Y-6.075
X2.84Y-1.975
X2.84Y-2.075
X2.84Y-2.175
X2.84Y-2.275
X2.84Y-2.375
X2.84Y-2.475
X2.84Y-2.575
X2.84Y-2.675
X2.84Y-2.775
X2.84Y-2.875
X2.84Y-2.975
X2.84Y-3.075
X2.84Y-3.175
X2.84Y-3.275
X2.84Y-3.375
X2.84Y-3.475
X2.84Y-3.575
X2.84Y-3.675
X2.84Y-3.775
X2.84Y-3.875
X2.84Y-3.975
X2.84Y-4.075
X2.84Y-4.175
X2.84Y-4.275
X2.84Y-4.375
X2.84Y-4.475
X2.84Y-4.575
X2.84Y-4.675
X2.84Y-4.775
X2.84Y-4.875
X2.84Y-4.975
X2.84Y-5.075
X2.84Y-5.175
X2.84Y-5.275
X2.84Y-5.375
X2.84Y-5.475
X2.84Y-5.575
X2.84Y-5.675
X2.84Y-5.775
X2.84Y-5.875
X2.84Y-5.975
X2.84Y-6.075
X2.94Y-1.975
X2.94Y-2.075
X2.94Y-2.175
X2.94Y-2.275
X2.94Y-2.375
X2.94Y-2.475
X2.94Y-2.575
X2.94Y-2.675
X2.94Y-2.775
X2.94Y-2.875
X2.94Y-2.975
X2.94Y-3.075
X2.94Y-3.175
X2.94Y-3.275
X2.94Y-3.375
X2.94Y-3.475
X2.94Y-3.575
X2.94Y-3.675
X2.94Y-3.775
X2.94Y-3.875
X2.94Y-3.975
X2.94Y-4.075
X2.94Y-4.175
X2.94Y-4.275
X2.94Y-4.375
X2.94Y-4.475
X2.94Y-4.575
X2.94Y-4.675
X2.94Y-4.775
X2.94Y-4.875
X2.94Y-4.975
X2.94Y-5.075
X2.94Y-5.175
X2.94Y-5.275
X2.94Y-5.375
X2.94Y-5.475
X2.94Y-5.575
X2.94Y-5.675
X2.94Y-5.775
X2.94Y-5.875
X2.94Y-5.975
X2.94Y-6.075
X3.04Y-1.975
X3.04Y-2.075
X3.04Y-2.175
X3.04Y-2.275
X3.04Y-2.375
X3.04Y-2.475
X3.04Y-2.575
X3.04Y-2.675
X3.04Y-2.775
X3.04Y-2.875
X3.04Y-2.975
X3.04Y-3.075
X3.04Y-3.175
X3.04Y-3.275
X3.04Y-3.375
X3.04Y-3.475
X3.04Y-3.575
X3.04Y-3.675
X3.04Y-3.775
X3.04Y-3.875
X3.04Y-3.975
X3.04Y-4.075
X3.04Y-4.175
X3.04Y-4.275
X3.04Y-4.375
X3.04Y-4.475
X3.04Y-4.575
X3.04Y-4.675
X3.04Y-4.775
X3.04Y-4.875
X3.04Y-4.975
X3.04Y-5.075
X3.04Y-5.175
X3.04Y-5.275
X3.04Y-5.375
X3.04Y-5.475
X3.04Y-5.575
X3.04Y-5.675
X3.04Y-5.775
X3.04Y-5.875
X3.04Y-5.975
X3.04Y-6.075
X3.74Y-1.975
X3.74Y-2.075
X3.74Y-2.175
X3.74Y-2.275
X3.74Y-2.375
X3.74Y-2.475
X3.74Y-2.575
X3.74Y-2.675
X3.74Y-2.775
X3.74Y-2.875
X3.74Y-2.975
X3.74Y-3.075
X3.74Y-3.175
X3.74Y-3.275
X3.74Y-3.375
X3.74Y-3.475
X3.74Y-3.575
X3.74Y-3.675
X3.74Y-3.775
X3.74Y-3.875
X3.74Y-3.975
X3.74Y-4.075
X3.74Y-4.175
X3.74Y-4.275
X3.74Y-4.375
X3.74Y-4.475
X3.74Y-4.575
X3.74Y-4.675
X3.74Y-4.775
X3.74Y-4.875
X3.74Y-4.975
X3.74Y-5.075
X3.74Y-5.175
X3.74Y-5.275
X3.74Y-5.375
X3.74Y-5.475
X3.74Y-5.575
X3.74Y-5.675
X3.74Y-5.775
X3.74Y-5.875
X3.74Y-5.975
X3.74Y-6.075
X3.84Y-1.975
X3.84Y-2.075
X3.84Y-2.175
X3.84Y-2.275
X3.84Y-2.375
X3.84Y-2.475
X3.84Y-2.575
X3.84Y-2.675
X3.84Y-2.775
X3.84Y-2.875
X3.84Y-2.975
X3.84Y-3.075
X3.84Y-3.175
X3.84Y-3.275
X3.84Y-3.375
X3.84Y-3.475
X3.84Y-3.575
X3.84Y-3.675
X3.84Y-3.775
X3.84Y-3.875
X3.84Y-3.975
X3.84Y-4.075
X3.84Y-4.175
X3.84Y-4.275
X3.84Y-4.375
X3.84Y-4.475
X3.84Y-4.575
X3.84Y-4.675
X3.84Y-4.775
X3.84Y-4.875
X3.84Y-4.975
X3.84Y-5.075
X3.84Y-5.175
X3.84Y-5.275
X3.84Y-5.375
X3.84Y-5.475
X3.84Y-5.575
X3.84Y-5.675
X3.84Y-5.775
X3.84Y-5.875
X3.84Y-5.975
X3.84Y-6.075
X3.34Y-1.975
X3.34Y-2.075
X3.34Y-2.175
X3.34Y-2.275
X3.34Y-2.375
X3.34Y-2.475
X3.34Y-2.575
X3.34Y-2.675
X3.34Y-2.775
X3.34Y-2.875
X3.34Y-2.975
X3.34Y-3.075
X3.34Y-3.175
X3.34Y-3.275
X3.34Y-3.375
X3.34Y-3.475
X3.34Y-3.575
X3.34Y-3.675
X3.34Y-3.775
X3.34Y-3.875
X3.34Y-3.975
X3.34Y-4.075
X3.34Y-4.175
X3.34Y-4.275
X3.34Y-4.375
X3.34Y-4.475
X3.34Y-4.575
X3.34Y-4.675
X3.34Y-4.775
X3.34Y-4.875
X3.34Y-4.975
X3.34Y-5.075
X3.34Y-5.175
X3.34Y-5.275
X3.34Y-5.375
X3.34Y-5.475
X3.34Y-5.575
X3.34Y-5.675
X3.34Y-5.775
X3.34Y-5.875
X3.34Y-5.975
X3.34Y-6.075
X3.44Y-1.975
X3.44Y-2.075
X3.44Y-2.175
X3.44Y-2.275
X3.44Y-2.375
X3.44Y-2.475
X3.44Y-2.575
X3.44Y-2.675
X3.44Y-2.775
X3.44Y-2.875
X3.44Y-2.975
X3.44Y-3.075
X3.44Y-3.175
X3.44Y-3.275
X3.44Y-3.375
X3.44Y-3.475
X3.44Y-3.575
X3.44Y-3.675
X3.44Y-3.775
X3.44Y-3.875
X3.44Y-3.975
X3.44Y-4.075
X3.44Y-4.175
X3.44Y-4.275
X3.44Y-4.375
X3.44Y-4.475
X3.44Y-4.575
X3.44Y-4.675
X3.44Y-4.775
X3.44Y-4.875
X3.44Y-4.975
X3.44Y-5.075
X3.44Y-5.175
X3.44Y-5.275
X3.44Y-5.375
X3.44Y-5.475
X3.44Y-5.575
X3.44Y-5.675
X3.44Y-5.775
X3.44Y-5.875
X3.44Y-5.975
X3.44Y-6.075
X3.94Y-1.975
X3.94Y-2.075
X3.94Y-2.175
X3.94Y-2.275
X3.94Y-2.375
X3.94Y-2.475
X3.94Y-2.575
X3.94Y-2.675
X3.94Y-2.775
X3.94Y-2.875
X3.94Y-2.975
X3.94Y-3.075
X3.94Y-3.175
X3.94Y-3.275
X3.94Y-3.375
X3.94Y-3.475
X3.94Y-3.575
X3.94Y-3.675
X3.94Y-3.775
X3.94Y-3.875
X3.94Y-3.975
X3.94Y-4.075
X3.94Y-4.175
X3.94Y-4.275
X3.94Y-4.375
X3.94Y-4.475
X3.94Y-4.575
X3.94Y-4.675
X3.94Y-4.775
X3.94Y-4.875
X3.94Y-4.975
X3.94Y-5.075
X3.94Y-5.175
X3.94Y-5.275
X3.94Y-5.375
X3.94Y-5.475
X3.94Y-5.575
X3.94Y-5.675
X3.94Y-5.775
X3.94Y-5.875
X3.94Y-5.975
X3.94Y-6.075
X4.04Y-1.975
X4.04Y-2.075
X4.04Y-2.175
X4.04Y-2.275
X4.04Y-2.375
X4.04Y-2.475
X4.04Y-2.575
X4.04Y-2.675
X4.04Y-2.775
X4.04Y-2.875
X4.04Y-2.975
X4.04Y-3.075
X4.04Y-3.175
X4.04Y-3.275
X4.04Y-3.375
X4.04Y-3.475
X4.04Y-3.575
X4.04Y-3.675
X4.04Y-3.775
X4.04Y-3.875
X4.04Y-3.975
X4.04Y-4.075
X4.04Y-4.175
X4.04Y-4.275
X4.04Y-4.375
X4.04Y-4.475
X4.04Y-4.575
X4.04Y-4.675
X4.04Y-4.775
X4.04Y-4.875
X4.04Y-4.975
X4.04Y-5.075
X4.04Y-5.175
X4.04Y-5.275
X4.04Y-5.375
X4.04Y-5.475
X4.04Y-5.575
X4.04Y-5.675
X4.04Y-5.775
X4.04Y-5.875
X4.04Y-5.975
X4.04Y-6.075
X3.54Y-1.975
X3.54Y-2.075
X3.54Y-2.175
X3.54Y-2.275
X3.54Y-2.375
X3.54Y-2.475
X3.54Y-2.575
X3.54Y-2.675
X3.54Y-2.775
X3.54Y-2.875
X3.54Y-2.975
X3.54Y-3.075
X3.54Y-3.175
X3.54Y-3.275
X3.54Y-3.375
X3.54Y-3.475
X3.54Y-3.575
X3.54Y-3.675
X3.54Y-3.775
X3.54Y-3.875
X3.54Y-3.975
X3.54Y-4.075
X3.54Y-4.175
X3.54Y-4.275
X3.54Y-4.375
X3.54Y-4.475
X3.54Y-4.575
X3.54Y-4.675
X3.54Y-4.775
X3.54Y-4.875
X3.54Y-4.975
X3.54Y-5.075
X3.54Y-5.175
X3.54Y-5.275
X3.54Y-5.375
X3.54Y-5.475
X3.54Y-5.575
X3.54Y-5.675
X3.54Y-5.775
X3.54Y-5.875
X3.54Y-5.975
X3.54Y-6.075
X3.64Y-1.975
X3.64Y-2.075
X3.64Y-2.175
X3.64Y-2.275
X3.64Y-2.375
X3.64Y-2.475
X3.64Y-2.575
X3.64Y-2.675
X3.64Y-2.775
X3.64Y-2.875
X3.64Y-2.975
X3.64Y-3.075
X3.64Y-3.175
X3.64Y-3.275
X3.64Y-3.375
X3.64Y-3.475
X3.64Y-3.575
X3.64Y-3.675
X3.64Y-3.775
X3.64Y-3.875
X3.64Y-3.975
X3.64Y-4.075
X3.64Y-4.175
X3.64Y-4.275
X3.64Y-4.375
X3.64Y-4.475
X3.64Y-4.575
X3.64Y-4.675
X3.64Y-4.775
X3.64Y-4.875
X3.64Y-4.975
X3.64Y-5.075
X3.64Y-5.175
X3.64Y-5.275
X3.64Y-5.375
X3.64Y-5.475
X3.64Y-5.575
X3.64Y-5.675
X3.64Y-5.775
X3.64Y-5.875
X3.64Y-5.975
X3.64Y-6.075
X3.14Y-1.975
X3.14Y-2.075
X3.14Y-2.175
X3.14Y-2.275
X3.14Y-2.375
X3.14Y-2.475
X3.14Y-2.575
X3.14Y-2.675
X3.14Y-2.775
X3.14Y-2.875
X3.14Y-2.975
X3.14Y-3.075
X3.14Y-3.175
X3.14Y-3.275
X3.14Y-3.375
X3.14Y-3.475
X3.14Y-3.575
X3.14Y-3.675
X3.14Y-3.775
X3.14Y-3.875
X3.14Y-3.975
X3.14Y-4.075
X3.14Y-4.175
X3.14Y-4.275
X3.14Y-4.375
X3.14Y-4.475
X3.14Y-4.575
X3.14Y-4.675
X3.14Y-4.775
X3.14Y-4.875
X3.14Y-4.975
X3.14Y-5.075
X3.14Y-5.175
X3.14Y-5.275
X3.14Y-5.375
X3.14Y-5.475
X3.14Y-5.575
X3.14Y-5.675
X3.14Y-5.775
X3.14Y-5.875
X3.14Y-5.975
X3.14Y-6.075
X3.24Y-1.975
X3.24Y-2.075
X3.24Y-2.175
X3.24Y-2.275
X3.24Y-2.375
X3.24Y-2.475
X3.24Y-2.575
X3.24Y-2.675
X3.24Y-2.775
X3.24Y-2.875
X3.24Y-2.975
X3.24Y-3.075
X3.24Y-3.175
X3.24Y-3.275
X3.24Y-3.375
X3.24Y-3.475
X3.24Y-3.575
X3.24Y-3.675
X3.24Y-3.775
X3.24Y-3.875
X3.24Y-3.975
X3.24Y-4.075
X3.24Y-4.175
X3.24Y-4.275
X3.24Y-4.375
X3.24Y-4.475
X3.24Y-4.575
X3.24Y-4.675
X3.24Y-4.775
X3.24Y-4.875
X3.24Y-4.975
X3.24Y-5.075
X3.24Y-5.175
X3.24Y-5.275
X3.24Y-5.375
X3.24Y-5.475
X3.24Y-5.575
X3.24Y-5.675
X3.24Y-5.775
X3.24Y-5.875
X3.24Y-5.975
X3.24Y-6.075
T0
M30
