G04 #@! TF.GenerationSoftware,KiCad,Pcbnew,5.0.2+dfsg1-1~bpo9+1*
G04 #@! TF.CreationDate,2019-11-20T21:54:30+01:00*
G04 #@! TF.ProjectId,eurobb,6575726f-6262-42e6-9b69-6361645f7063,rev?*
G04 #@! TF.SameCoordinates,Original*
G04 #@! TF.FileFunction,Copper,L2,Bot*
G04 #@! TF.FilePolarity,Positive*
%FSLAX46Y46*%
G04 Gerber Fmt 4.6, Leading zero omitted, Abs format (unit mm)*
G04 Created by KiCad (PCBNEW 5.0.2+dfsg1-1~bpo9+1) date Wed 20 Nov 2019 09:54:30 PM CET*
%MOMM*%
%LPD*%
G01*
G04 APERTURE LIST*
G04 #@! TA.AperFunction,ComponentPad*
%ADD10O,1.700000X1.700000*%
G04 #@! TD*
G04 #@! TA.AperFunction,ComponentPad*
%ADD11C,1.700000*%
G04 #@! TD*
G04 #@! TA.AperFunction,Conductor*
%ADD12C,1.270000*%
G04 #@! TD*
G04 APERTURE END LIST*
D10*
G04 #@! TO.P,REF\002A\002A,84*
G04 #@! TO.N,N/C*
X72136000Y-154305000D03*
G04 #@! TO.P,REF\002A\002A,83*
X69596000Y-154305000D03*
G04 #@! TO.P,REF\002A\002A,82*
X72136000Y-151765000D03*
G04 #@! TO.P,REF\002A\002A,81*
X69596000Y-151765000D03*
G04 #@! TO.P,REF\002A\002A,80*
X72136000Y-149225000D03*
G04 #@! TO.P,REF\002A\002A,79*
X69596000Y-149225000D03*
G04 #@! TO.P,REF\002A\002A,78*
X72136000Y-146685000D03*
G04 #@! TO.P,REF\002A\002A,77*
X69596000Y-146685000D03*
G04 #@! TO.P,REF\002A\002A,76*
X72136000Y-144145000D03*
G04 #@! TO.P,REF\002A\002A,75*
X69596000Y-144145000D03*
G04 #@! TO.P,REF\002A\002A,74*
X72136000Y-141605000D03*
G04 #@! TO.P,REF\002A\002A,73*
X69596000Y-141605000D03*
G04 #@! TO.P,REF\002A\002A,72*
X72136000Y-139065000D03*
G04 #@! TO.P,REF\002A\002A,71*
X69596000Y-139065000D03*
G04 #@! TO.P,REF\002A\002A,70*
X72136000Y-136525000D03*
G04 #@! TO.P,REF\002A\002A,69*
X69596000Y-136525000D03*
G04 #@! TO.P,REF\002A\002A,68*
X72136000Y-133985000D03*
G04 #@! TO.P,REF\002A\002A,67*
X69596000Y-133985000D03*
G04 #@! TO.P,REF\002A\002A,66*
X72136000Y-131445000D03*
G04 #@! TO.P,REF\002A\002A,65*
X69596000Y-131445000D03*
G04 #@! TO.P,REF\002A\002A,64*
X72136000Y-128905000D03*
G04 #@! TO.P,REF\002A\002A,63*
X69596000Y-128905000D03*
G04 #@! TO.P,REF\002A\002A,62*
X72136000Y-126365000D03*
G04 #@! TO.P,REF\002A\002A,61*
X69596000Y-126365000D03*
G04 #@! TO.P,REF\002A\002A,60*
X72136000Y-123825000D03*
G04 #@! TO.P,REF\002A\002A,59*
X69596000Y-123825000D03*
G04 #@! TO.P,REF\002A\002A,58*
X72136000Y-121285000D03*
G04 #@! TO.P,REF\002A\002A,57*
X69596000Y-121285000D03*
G04 #@! TO.P,REF\002A\002A,56*
X72136000Y-118745000D03*
G04 #@! TO.P,REF\002A\002A,55*
X69596000Y-118745000D03*
G04 #@! TO.P,REF\002A\002A,54*
X72136000Y-116205000D03*
G04 #@! TO.P,REF\002A\002A,53*
X69596000Y-116205000D03*
G04 #@! TO.P,REF\002A\002A,52*
X72136000Y-113665000D03*
G04 #@! TO.P,REF\002A\002A,51*
X69596000Y-113665000D03*
G04 #@! TO.P,REF\002A\002A,50*
X72136000Y-111125000D03*
G04 #@! TO.P,REF\002A\002A,49*
X69596000Y-111125000D03*
G04 #@! TO.P,REF\002A\002A,48*
X72136000Y-108585000D03*
G04 #@! TO.P,REF\002A\002A,47*
X69596000Y-108585000D03*
G04 #@! TO.P,REF\002A\002A,46*
X72136000Y-106045000D03*
G04 #@! TO.P,REF\002A\002A,45*
X69596000Y-106045000D03*
G04 #@! TO.P,REF\002A\002A,44*
X72136000Y-103505000D03*
G04 #@! TO.P,REF\002A\002A,43*
X69596000Y-103505000D03*
G04 #@! TO.P,REF\002A\002A,42*
X72136000Y-100965000D03*
G04 #@! TO.P,REF\002A\002A,41*
X69596000Y-100965000D03*
G04 #@! TO.P,REF\002A\002A,40*
X72136000Y-98425000D03*
G04 #@! TO.P,REF\002A\002A,39*
X69596000Y-98425000D03*
G04 #@! TO.P,REF\002A\002A,38*
X72136000Y-95885000D03*
G04 #@! TO.P,REF\002A\002A,37*
X69596000Y-95885000D03*
G04 #@! TO.P,REF\002A\002A,36*
X72136000Y-93345000D03*
G04 #@! TO.P,REF\002A\002A,35*
X69596000Y-93345000D03*
G04 #@! TO.P,REF\002A\002A,34*
X72136000Y-90805000D03*
G04 #@! TO.P,REF\002A\002A,33*
X69596000Y-90805000D03*
G04 #@! TO.P,REF\002A\002A,32*
X72136000Y-88265000D03*
G04 #@! TO.P,REF\002A\002A,31*
X69596000Y-88265000D03*
G04 #@! TO.P,REF\002A\002A,30*
X72136000Y-85725000D03*
G04 #@! TO.P,REF\002A\002A,29*
X69596000Y-85725000D03*
G04 #@! TO.P,REF\002A\002A,28*
X72136000Y-83185000D03*
G04 #@! TO.P,REF\002A\002A,27*
X69596000Y-83185000D03*
G04 #@! TO.P,REF\002A\002A,26*
X72136000Y-80645000D03*
G04 #@! TO.P,REF\002A\002A,25*
X69596000Y-80645000D03*
G04 #@! TO.P,REF\002A\002A,24*
X72136000Y-78105000D03*
G04 #@! TO.P,REF\002A\002A,23*
X69596000Y-78105000D03*
G04 #@! TO.P,REF\002A\002A,22*
X72136000Y-75565000D03*
G04 #@! TO.P,REF\002A\002A,21*
X69596000Y-75565000D03*
G04 #@! TO.P,REF\002A\002A,20*
X72136000Y-73025000D03*
G04 #@! TO.P,REF\002A\002A,19*
X69596000Y-73025000D03*
G04 #@! TO.P,REF\002A\002A,18*
X72136000Y-70485000D03*
G04 #@! TO.P,REF\002A\002A,17*
X69596000Y-70485000D03*
G04 #@! TO.P,REF\002A\002A,16*
X72136000Y-67945000D03*
G04 #@! TO.P,REF\002A\002A,15*
X69596000Y-67945000D03*
G04 #@! TO.P,REF\002A\002A,14*
X72136000Y-65405000D03*
G04 #@! TO.P,REF\002A\002A,13*
X69596000Y-65405000D03*
G04 #@! TO.P,REF\002A\002A,12*
X72136000Y-62865000D03*
G04 #@! TO.P,REF\002A\002A,11*
X69596000Y-62865000D03*
G04 #@! TO.P,REF\002A\002A,10*
X72136000Y-60325000D03*
G04 #@! TO.P,REF\002A\002A,9*
X69596000Y-60325000D03*
G04 #@! TO.P,REF\002A\002A,8*
X72136000Y-57785000D03*
G04 #@! TO.P,REF\002A\002A,7*
X69596000Y-57785000D03*
G04 #@! TO.P,REF\002A\002A,6*
X72136000Y-55245000D03*
G04 #@! TO.P,REF\002A\002A,5*
X69596000Y-55245000D03*
G04 #@! TO.P,REF\002A\002A,4*
X72136000Y-52705000D03*
G04 #@! TO.P,REF\002A\002A,3*
X69596000Y-52705000D03*
G04 #@! TO.P,REF\002A\002A,2*
X72136000Y-50165000D03*
D11*
G04 #@! TO.P,REF\002A\002A,1*
X69596000Y-50165000D03*
G04 #@! TD*
D10*
G04 #@! TO.P,REF\002A\002A,84*
G04 #@! TO.N,N/C*
X102616000Y-154305000D03*
G04 #@! TO.P,REF\002A\002A,83*
X100076000Y-154305000D03*
G04 #@! TO.P,REF\002A\002A,82*
X102616000Y-151765000D03*
G04 #@! TO.P,REF\002A\002A,81*
X100076000Y-151765000D03*
G04 #@! TO.P,REF\002A\002A,80*
X102616000Y-149225000D03*
G04 #@! TO.P,REF\002A\002A,79*
X100076000Y-149225000D03*
G04 #@! TO.P,REF\002A\002A,78*
X102616000Y-146685000D03*
G04 #@! TO.P,REF\002A\002A,77*
X100076000Y-146685000D03*
G04 #@! TO.P,REF\002A\002A,76*
X102616000Y-144145000D03*
G04 #@! TO.P,REF\002A\002A,75*
X100076000Y-144145000D03*
G04 #@! TO.P,REF\002A\002A,74*
X102616000Y-141605000D03*
G04 #@! TO.P,REF\002A\002A,73*
X100076000Y-141605000D03*
G04 #@! TO.P,REF\002A\002A,72*
X102616000Y-139065000D03*
G04 #@! TO.P,REF\002A\002A,71*
X100076000Y-139065000D03*
G04 #@! TO.P,REF\002A\002A,70*
X102616000Y-136525000D03*
G04 #@! TO.P,REF\002A\002A,69*
X100076000Y-136525000D03*
G04 #@! TO.P,REF\002A\002A,68*
X102616000Y-133985000D03*
G04 #@! TO.P,REF\002A\002A,67*
X100076000Y-133985000D03*
G04 #@! TO.P,REF\002A\002A,66*
X102616000Y-131445000D03*
G04 #@! TO.P,REF\002A\002A,65*
X100076000Y-131445000D03*
G04 #@! TO.P,REF\002A\002A,64*
X102616000Y-128905000D03*
G04 #@! TO.P,REF\002A\002A,63*
X100076000Y-128905000D03*
G04 #@! TO.P,REF\002A\002A,62*
X102616000Y-126365000D03*
G04 #@! TO.P,REF\002A\002A,61*
X100076000Y-126365000D03*
G04 #@! TO.P,REF\002A\002A,60*
X102616000Y-123825000D03*
G04 #@! TO.P,REF\002A\002A,59*
X100076000Y-123825000D03*
G04 #@! TO.P,REF\002A\002A,58*
X102616000Y-121285000D03*
G04 #@! TO.P,REF\002A\002A,57*
X100076000Y-121285000D03*
G04 #@! TO.P,REF\002A\002A,56*
X102616000Y-118745000D03*
G04 #@! TO.P,REF\002A\002A,55*
X100076000Y-118745000D03*
G04 #@! TO.P,REF\002A\002A,54*
X102616000Y-116205000D03*
G04 #@! TO.P,REF\002A\002A,53*
X100076000Y-116205000D03*
G04 #@! TO.P,REF\002A\002A,52*
X102616000Y-113665000D03*
G04 #@! TO.P,REF\002A\002A,51*
X100076000Y-113665000D03*
G04 #@! TO.P,REF\002A\002A,50*
X102616000Y-111125000D03*
G04 #@! TO.P,REF\002A\002A,49*
X100076000Y-111125000D03*
G04 #@! TO.P,REF\002A\002A,48*
X102616000Y-108585000D03*
G04 #@! TO.P,REF\002A\002A,47*
X100076000Y-108585000D03*
G04 #@! TO.P,REF\002A\002A,46*
X102616000Y-106045000D03*
G04 #@! TO.P,REF\002A\002A,45*
X100076000Y-106045000D03*
G04 #@! TO.P,REF\002A\002A,44*
X102616000Y-103505000D03*
G04 #@! TO.P,REF\002A\002A,43*
X100076000Y-103505000D03*
G04 #@! TO.P,REF\002A\002A,42*
X102616000Y-100965000D03*
G04 #@! TO.P,REF\002A\002A,41*
X100076000Y-100965000D03*
G04 #@! TO.P,REF\002A\002A,40*
X102616000Y-98425000D03*
G04 #@! TO.P,REF\002A\002A,39*
X100076000Y-98425000D03*
G04 #@! TO.P,REF\002A\002A,38*
X102616000Y-95885000D03*
G04 #@! TO.P,REF\002A\002A,37*
X100076000Y-95885000D03*
G04 #@! TO.P,REF\002A\002A,36*
X102616000Y-93345000D03*
G04 #@! TO.P,REF\002A\002A,35*
X100076000Y-93345000D03*
G04 #@! TO.P,REF\002A\002A,34*
X102616000Y-90805000D03*
G04 #@! TO.P,REF\002A\002A,33*
X100076000Y-90805000D03*
G04 #@! TO.P,REF\002A\002A,32*
X102616000Y-88265000D03*
G04 #@! TO.P,REF\002A\002A,31*
X100076000Y-88265000D03*
G04 #@! TO.P,REF\002A\002A,30*
X102616000Y-85725000D03*
G04 #@! TO.P,REF\002A\002A,29*
X100076000Y-85725000D03*
G04 #@! TO.P,REF\002A\002A,28*
X102616000Y-83185000D03*
G04 #@! TO.P,REF\002A\002A,27*
X100076000Y-83185000D03*
G04 #@! TO.P,REF\002A\002A,26*
X102616000Y-80645000D03*
G04 #@! TO.P,REF\002A\002A,25*
X100076000Y-80645000D03*
G04 #@! TO.P,REF\002A\002A,24*
X102616000Y-78105000D03*
G04 #@! TO.P,REF\002A\002A,23*
X100076000Y-78105000D03*
G04 #@! TO.P,REF\002A\002A,22*
X102616000Y-75565000D03*
G04 #@! TO.P,REF\002A\002A,21*
X100076000Y-75565000D03*
G04 #@! TO.P,REF\002A\002A,20*
X102616000Y-73025000D03*
G04 #@! TO.P,REF\002A\002A,19*
X100076000Y-73025000D03*
G04 #@! TO.P,REF\002A\002A,18*
X102616000Y-70485000D03*
G04 #@! TO.P,REF\002A\002A,17*
X100076000Y-70485000D03*
G04 #@! TO.P,REF\002A\002A,16*
X102616000Y-67945000D03*
G04 #@! TO.P,REF\002A\002A,15*
X100076000Y-67945000D03*
G04 #@! TO.P,REF\002A\002A,14*
X102616000Y-65405000D03*
G04 #@! TO.P,REF\002A\002A,13*
X100076000Y-65405000D03*
G04 #@! TO.P,REF\002A\002A,12*
X102616000Y-62865000D03*
G04 #@! TO.P,REF\002A\002A,11*
X100076000Y-62865000D03*
G04 #@! TO.P,REF\002A\002A,10*
X102616000Y-60325000D03*
G04 #@! TO.P,REF\002A\002A,9*
X100076000Y-60325000D03*
G04 #@! TO.P,REF\002A\002A,8*
X102616000Y-57785000D03*
G04 #@! TO.P,REF\002A\002A,7*
X100076000Y-57785000D03*
G04 #@! TO.P,REF\002A\002A,6*
X102616000Y-55245000D03*
G04 #@! TO.P,REF\002A\002A,5*
X100076000Y-55245000D03*
G04 #@! TO.P,REF\002A\002A,4*
X102616000Y-52705000D03*
G04 #@! TO.P,REF\002A\002A,3*
X100076000Y-52705000D03*
G04 #@! TO.P,REF\002A\002A,2*
X102616000Y-50165000D03*
D11*
G04 #@! TO.P,REF\002A\002A,1*
X100076000Y-50165000D03*
G04 #@! TD*
D10*
G04 #@! TO.P,REF\002A\002A,84*
G04 #@! TO.N,N/C*
X77216000Y-154305000D03*
G04 #@! TO.P,REF\002A\002A,83*
X74676000Y-154305000D03*
G04 #@! TO.P,REF\002A\002A,82*
X77216000Y-151765000D03*
G04 #@! TO.P,REF\002A\002A,81*
X74676000Y-151765000D03*
G04 #@! TO.P,REF\002A\002A,80*
X77216000Y-149225000D03*
G04 #@! TO.P,REF\002A\002A,79*
X74676000Y-149225000D03*
G04 #@! TO.P,REF\002A\002A,78*
X77216000Y-146685000D03*
G04 #@! TO.P,REF\002A\002A,77*
X74676000Y-146685000D03*
G04 #@! TO.P,REF\002A\002A,76*
X77216000Y-144145000D03*
G04 #@! TO.P,REF\002A\002A,75*
X74676000Y-144145000D03*
G04 #@! TO.P,REF\002A\002A,74*
X77216000Y-141605000D03*
G04 #@! TO.P,REF\002A\002A,73*
X74676000Y-141605000D03*
G04 #@! TO.P,REF\002A\002A,72*
X77216000Y-139065000D03*
G04 #@! TO.P,REF\002A\002A,71*
X74676000Y-139065000D03*
G04 #@! TO.P,REF\002A\002A,70*
X77216000Y-136525000D03*
G04 #@! TO.P,REF\002A\002A,69*
X74676000Y-136525000D03*
G04 #@! TO.P,REF\002A\002A,68*
X77216000Y-133985000D03*
G04 #@! TO.P,REF\002A\002A,67*
X74676000Y-133985000D03*
G04 #@! TO.P,REF\002A\002A,66*
X77216000Y-131445000D03*
G04 #@! TO.P,REF\002A\002A,65*
X74676000Y-131445000D03*
G04 #@! TO.P,REF\002A\002A,64*
X77216000Y-128905000D03*
G04 #@! TO.P,REF\002A\002A,63*
X74676000Y-128905000D03*
G04 #@! TO.P,REF\002A\002A,62*
X77216000Y-126365000D03*
G04 #@! TO.P,REF\002A\002A,61*
X74676000Y-126365000D03*
G04 #@! TO.P,REF\002A\002A,60*
X77216000Y-123825000D03*
G04 #@! TO.P,REF\002A\002A,59*
X74676000Y-123825000D03*
G04 #@! TO.P,REF\002A\002A,58*
X77216000Y-121285000D03*
G04 #@! TO.P,REF\002A\002A,57*
X74676000Y-121285000D03*
G04 #@! TO.P,REF\002A\002A,56*
X77216000Y-118745000D03*
G04 #@! TO.P,REF\002A\002A,55*
X74676000Y-118745000D03*
G04 #@! TO.P,REF\002A\002A,54*
X77216000Y-116205000D03*
G04 #@! TO.P,REF\002A\002A,53*
X74676000Y-116205000D03*
G04 #@! TO.P,REF\002A\002A,52*
X77216000Y-113665000D03*
G04 #@! TO.P,REF\002A\002A,51*
X74676000Y-113665000D03*
G04 #@! TO.P,REF\002A\002A,50*
X77216000Y-111125000D03*
G04 #@! TO.P,REF\002A\002A,49*
X74676000Y-111125000D03*
G04 #@! TO.P,REF\002A\002A,48*
X77216000Y-108585000D03*
G04 #@! TO.P,REF\002A\002A,47*
X74676000Y-108585000D03*
G04 #@! TO.P,REF\002A\002A,46*
X77216000Y-106045000D03*
G04 #@! TO.P,REF\002A\002A,45*
X74676000Y-106045000D03*
G04 #@! TO.P,REF\002A\002A,44*
X77216000Y-103505000D03*
G04 #@! TO.P,REF\002A\002A,43*
X74676000Y-103505000D03*
G04 #@! TO.P,REF\002A\002A,42*
X77216000Y-100965000D03*
G04 #@! TO.P,REF\002A\002A,41*
X74676000Y-100965000D03*
G04 #@! TO.P,REF\002A\002A,40*
X77216000Y-98425000D03*
G04 #@! TO.P,REF\002A\002A,39*
X74676000Y-98425000D03*
G04 #@! TO.P,REF\002A\002A,38*
X77216000Y-95885000D03*
G04 #@! TO.P,REF\002A\002A,37*
X74676000Y-95885000D03*
G04 #@! TO.P,REF\002A\002A,36*
X77216000Y-93345000D03*
G04 #@! TO.P,REF\002A\002A,35*
X74676000Y-93345000D03*
G04 #@! TO.P,REF\002A\002A,34*
X77216000Y-90805000D03*
G04 #@! TO.P,REF\002A\002A,33*
X74676000Y-90805000D03*
G04 #@! TO.P,REF\002A\002A,32*
X77216000Y-88265000D03*
G04 #@! TO.P,REF\002A\002A,31*
X74676000Y-88265000D03*
G04 #@! TO.P,REF\002A\002A,30*
X77216000Y-85725000D03*
G04 #@! TO.P,REF\002A\002A,29*
X74676000Y-85725000D03*
G04 #@! TO.P,REF\002A\002A,28*
X77216000Y-83185000D03*
G04 #@! TO.P,REF\002A\002A,27*
X74676000Y-83185000D03*
G04 #@! TO.P,REF\002A\002A,26*
X77216000Y-80645000D03*
G04 #@! TO.P,REF\002A\002A,25*
X74676000Y-80645000D03*
G04 #@! TO.P,REF\002A\002A,24*
X77216000Y-78105000D03*
G04 #@! TO.P,REF\002A\002A,23*
X74676000Y-78105000D03*
G04 #@! TO.P,REF\002A\002A,22*
X77216000Y-75565000D03*
G04 #@! TO.P,REF\002A\002A,21*
X74676000Y-75565000D03*
G04 #@! TO.P,REF\002A\002A,20*
X77216000Y-73025000D03*
G04 #@! TO.P,REF\002A\002A,19*
X74676000Y-73025000D03*
G04 #@! TO.P,REF\002A\002A,18*
X77216000Y-70485000D03*
G04 #@! TO.P,REF\002A\002A,17*
X74676000Y-70485000D03*
G04 #@! TO.P,REF\002A\002A,16*
X77216000Y-67945000D03*
G04 #@! TO.P,REF\002A\002A,15*
X74676000Y-67945000D03*
G04 #@! TO.P,REF\002A\002A,14*
X77216000Y-65405000D03*
G04 #@! TO.P,REF\002A\002A,13*
X74676000Y-65405000D03*
G04 #@! TO.P,REF\002A\002A,12*
X77216000Y-62865000D03*
G04 #@! TO.P,REF\002A\002A,11*
X74676000Y-62865000D03*
G04 #@! TO.P,REF\002A\002A,10*
X77216000Y-60325000D03*
G04 #@! TO.P,REF\002A\002A,9*
X74676000Y-60325000D03*
G04 #@! TO.P,REF\002A\002A,8*
X77216000Y-57785000D03*
G04 #@! TO.P,REF\002A\002A,7*
X74676000Y-57785000D03*
G04 #@! TO.P,REF\002A\002A,6*
X77216000Y-55245000D03*
G04 #@! TO.P,REF\002A\002A,5*
X74676000Y-55245000D03*
G04 #@! TO.P,REF\002A\002A,4*
X77216000Y-52705000D03*
G04 #@! TO.P,REF\002A\002A,3*
X74676000Y-52705000D03*
G04 #@! TO.P,REF\002A\002A,2*
X77216000Y-50165000D03*
D11*
G04 #@! TO.P,REF\002A\002A,1*
X74676000Y-50165000D03*
G04 #@! TD*
D10*
G04 #@! TO.P,REF\002A\002A,84*
G04 #@! TO.N,N/C*
X82296000Y-154305000D03*
G04 #@! TO.P,REF\002A\002A,83*
X79756000Y-154305000D03*
G04 #@! TO.P,REF\002A\002A,82*
X82296000Y-151765000D03*
G04 #@! TO.P,REF\002A\002A,81*
X79756000Y-151765000D03*
G04 #@! TO.P,REF\002A\002A,80*
X82296000Y-149225000D03*
G04 #@! TO.P,REF\002A\002A,79*
X79756000Y-149225000D03*
G04 #@! TO.P,REF\002A\002A,78*
X82296000Y-146685000D03*
G04 #@! TO.P,REF\002A\002A,77*
X79756000Y-146685000D03*
G04 #@! TO.P,REF\002A\002A,76*
X82296000Y-144145000D03*
G04 #@! TO.P,REF\002A\002A,75*
X79756000Y-144145000D03*
G04 #@! TO.P,REF\002A\002A,74*
X82296000Y-141605000D03*
G04 #@! TO.P,REF\002A\002A,73*
X79756000Y-141605000D03*
G04 #@! TO.P,REF\002A\002A,72*
X82296000Y-139065000D03*
G04 #@! TO.P,REF\002A\002A,71*
X79756000Y-139065000D03*
G04 #@! TO.P,REF\002A\002A,70*
X82296000Y-136525000D03*
G04 #@! TO.P,REF\002A\002A,69*
X79756000Y-136525000D03*
G04 #@! TO.P,REF\002A\002A,68*
X82296000Y-133985000D03*
G04 #@! TO.P,REF\002A\002A,67*
X79756000Y-133985000D03*
G04 #@! TO.P,REF\002A\002A,66*
X82296000Y-131445000D03*
G04 #@! TO.P,REF\002A\002A,65*
X79756000Y-131445000D03*
G04 #@! TO.P,REF\002A\002A,64*
X82296000Y-128905000D03*
G04 #@! TO.P,REF\002A\002A,63*
X79756000Y-128905000D03*
G04 #@! TO.P,REF\002A\002A,62*
X82296000Y-126365000D03*
G04 #@! TO.P,REF\002A\002A,61*
X79756000Y-126365000D03*
G04 #@! TO.P,REF\002A\002A,60*
X82296000Y-123825000D03*
G04 #@! TO.P,REF\002A\002A,59*
X79756000Y-123825000D03*
G04 #@! TO.P,REF\002A\002A,58*
X82296000Y-121285000D03*
G04 #@! TO.P,REF\002A\002A,57*
X79756000Y-121285000D03*
G04 #@! TO.P,REF\002A\002A,56*
X82296000Y-118745000D03*
G04 #@! TO.P,REF\002A\002A,55*
X79756000Y-118745000D03*
G04 #@! TO.P,REF\002A\002A,54*
X82296000Y-116205000D03*
G04 #@! TO.P,REF\002A\002A,53*
X79756000Y-116205000D03*
G04 #@! TO.P,REF\002A\002A,52*
X82296000Y-113665000D03*
G04 #@! TO.P,REF\002A\002A,51*
X79756000Y-113665000D03*
G04 #@! TO.P,REF\002A\002A,50*
X82296000Y-111125000D03*
G04 #@! TO.P,REF\002A\002A,49*
X79756000Y-111125000D03*
G04 #@! TO.P,REF\002A\002A,48*
X82296000Y-108585000D03*
G04 #@! TO.P,REF\002A\002A,47*
X79756000Y-108585000D03*
G04 #@! TO.P,REF\002A\002A,46*
X82296000Y-106045000D03*
G04 #@! TO.P,REF\002A\002A,45*
X79756000Y-106045000D03*
G04 #@! TO.P,REF\002A\002A,44*
X82296000Y-103505000D03*
G04 #@! TO.P,REF\002A\002A,43*
X79756000Y-103505000D03*
G04 #@! TO.P,REF\002A\002A,42*
X82296000Y-100965000D03*
G04 #@! TO.P,REF\002A\002A,41*
X79756000Y-100965000D03*
G04 #@! TO.P,REF\002A\002A,40*
X82296000Y-98425000D03*
G04 #@! TO.P,REF\002A\002A,39*
X79756000Y-98425000D03*
G04 #@! TO.P,REF\002A\002A,38*
X82296000Y-95885000D03*
G04 #@! TO.P,REF\002A\002A,37*
X79756000Y-95885000D03*
G04 #@! TO.P,REF\002A\002A,36*
X82296000Y-93345000D03*
G04 #@! TO.P,REF\002A\002A,35*
X79756000Y-93345000D03*
G04 #@! TO.P,REF\002A\002A,34*
X82296000Y-90805000D03*
G04 #@! TO.P,REF\002A\002A,33*
X79756000Y-90805000D03*
G04 #@! TO.P,REF\002A\002A,32*
X82296000Y-88265000D03*
G04 #@! TO.P,REF\002A\002A,31*
X79756000Y-88265000D03*
G04 #@! TO.P,REF\002A\002A,30*
X82296000Y-85725000D03*
G04 #@! TO.P,REF\002A\002A,29*
X79756000Y-85725000D03*
G04 #@! TO.P,REF\002A\002A,28*
X82296000Y-83185000D03*
G04 #@! TO.P,REF\002A\002A,27*
X79756000Y-83185000D03*
G04 #@! TO.P,REF\002A\002A,26*
X82296000Y-80645000D03*
G04 #@! TO.P,REF\002A\002A,25*
X79756000Y-80645000D03*
G04 #@! TO.P,REF\002A\002A,24*
X82296000Y-78105000D03*
G04 #@! TO.P,REF\002A\002A,23*
X79756000Y-78105000D03*
G04 #@! TO.P,REF\002A\002A,22*
X82296000Y-75565000D03*
G04 #@! TO.P,REF\002A\002A,21*
X79756000Y-75565000D03*
G04 #@! TO.P,REF\002A\002A,20*
X82296000Y-73025000D03*
G04 #@! TO.P,REF\002A\002A,19*
X79756000Y-73025000D03*
G04 #@! TO.P,REF\002A\002A,18*
X82296000Y-70485000D03*
G04 #@! TO.P,REF\002A\002A,17*
X79756000Y-70485000D03*
G04 #@! TO.P,REF\002A\002A,16*
X82296000Y-67945000D03*
G04 #@! TO.P,REF\002A\002A,15*
X79756000Y-67945000D03*
G04 #@! TO.P,REF\002A\002A,14*
X82296000Y-65405000D03*
G04 #@! TO.P,REF\002A\002A,13*
X79756000Y-65405000D03*
G04 #@! TO.P,REF\002A\002A,12*
X82296000Y-62865000D03*
G04 #@! TO.P,REF\002A\002A,11*
X79756000Y-62865000D03*
G04 #@! TO.P,REF\002A\002A,10*
X82296000Y-60325000D03*
G04 #@! TO.P,REF\002A\002A,9*
X79756000Y-60325000D03*
G04 #@! TO.P,REF\002A\002A,8*
X82296000Y-57785000D03*
G04 #@! TO.P,REF\002A\002A,7*
X79756000Y-57785000D03*
G04 #@! TO.P,REF\002A\002A,6*
X82296000Y-55245000D03*
G04 #@! TO.P,REF\002A\002A,5*
X79756000Y-55245000D03*
G04 #@! TO.P,REF\002A\002A,4*
X82296000Y-52705000D03*
G04 #@! TO.P,REF\002A\002A,3*
X79756000Y-52705000D03*
G04 #@! TO.P,REF\002A\002A,2*
X82296000Y-50165000D03*
D11*
G04 #@! TO.P,REF\002A\002A,1*
X79756000Y-50165000D03*
G04 #@! TD*
D10*
G04 #@! TO.P,REF\002A\002A,84*
G04 #@! TO.N,N/C*
X87376000Y-154305000D03*
G04 #@! TO.P,REF\002A\002A,83*
X84836000Y-154305000D03*
G04 #@! TO.P,REF\002A\002A,82*
X87376000Y-151765000D03*
G04 #@! TO.P,REF\002A\002A,81*
X84836000Y-151765000D03*
G04 #@! TO.P,REF\002A\002A,80*
X87376000Y-149225000D03*
G04 #@! TO.P,REF\002A\002A,79*
X84836000Y-149225000D03*
G04 #@! TO.P,REF\002A\002A,78*
X87376000Y-146685000D03*
G04 #@! TO.P,REF\002A\002A,77*
X84836000Y-146685000D03*
G04 #@! TO.P,REF\002A\002A,76*
X87376000Y-144145000D03*
G04 #@! TO.P,REF\002A\002A,75*
X84836000Y-144145000D03*
G04 #@! TO.P,REF\002A\002A,74*
X87376000Y-141605000D03*
G04 #@! TO.P,REF\002A\002A,73*
X84836000Y-141605000D03*
G04 #@! TO.P,REF\002A\002A,72*
X87376000Y-139065000D03*
G04 #@! TO.P,REF\002A\002A,71*
X84836000Y-139065000D03*
G04 #@! TO.P,REF\002A\002A,70*
X87376000Y-136525000D03*
G04 #@! TO.P,REF\002A\002A,69*
X84836000Y-136525000D03*
G04 #@! TO.P,REF\002A\002A,68*
X87376000Y-133985000D03*
G04 #@! TO.P,REF\002A\002A,67*
X84836000Y-133985000D03*
G04 #@! TO.P,REF\002A\002A,66*
X87376000Y-131445000D03*
G04 #@! TO.P,REF\002A\002A,65*
X84836000Y-131445000D03*
G04 #@! TO.P,REF\002A\002A,64*
X87376000Y-128905000D03*
G04 #@! TO.P,REF\002A\002A,63*
X84836000Y-128905000D03*
G04 #@! TO.P,REF\002A\002A,62*
X87376000Y-126365000D03*
G04 #@! TO.P,REF\002A\002A,61*
X84836000Y-126365000D03*
G04 #@! TO.P,REF\002A\002A,60*
X87376000Y-123825000D03*
G04 #@! TO.P,REF\002A\002A,59*
X84836000Y-123825000D03*
G04 #@! TO.P,REF\002A\002A,58*
X87376000Y-121285000D03*
G04 #@! TO.P,REF\002A\002A,57*
X84836000Y-121285000D03*
G04 #@! TO.P,REF\002A\002A,56*
X87376000Y-118745000D03*
G04 #@! TO.P,REF\002A\002A,55*
X84836000Y-118745000D03*
G04 #@! TO.P,REF\002A\002A,54*
X87376000Y-116205000D03*
G04 #@! TO.P,REF\002A\002A,53*
X84836000Y-116205000D03*
G04 #@! TO.P,REF\002A\002A,52*
X87376000Y-113665000D03*
G04 #@! TO.P,REF\002A\002A,51*
X84836000Y-113665000D03*
G04 #@! TO.P,REF\002A\002A,50*
X87376000Y-111125000D03*
G04 #@! TO.P,REF\002A\002A,49*
X84836000Y-111125000D03*
G04 #@! TO.P,REF\002A\002A,48*
X87376000Y-108585000D03*
G04 #@! TO.P,REF\002A\002A,47*
X84836000Y-108585000D03*
G04 #@! TO.P,REF\002A\002A,46*
X87376000Y-106045000D03*
G04 #@! TO.P,REF\002A\002A,45*
X84836000Y-106045000D03*
G04 #@! TO.P,REF\002A\002A,44*
X87376000Y-103505000D03*
G04 #@! TO.P,REF\002A\002A,43*
X84836000Y-103505000D03*
G04 #@! TO.P,REF\002A\002A,42*
X87376000Y-100965000D03*
G04 #@! TO.P,REF\002A\002A,41*
X84836000Y-100965000D03*
G04 #@! TO.P,REF\002A\002A,40*
X87376000Y-98425000D03*
G04 #@! TO.P,REF\002A\002A,39*
X84836000Y-98425000D03*
G04 #@! TO.P,REF\002A\002A,38*
X87376000Y-95885000D03*
G04 #@! TO.P,REF\002A\002A,37*
X84836000Y-95885000D03*
G04 #@! TO.P,REF\002A\002A,36*
X87376000Y-93345000D03*
G04 #@! TO.P,REF\002A\002A,35*
X84836000Y-93345000D03*
G04 #@! TO.P,REF\002A\002A,34*
X87376000Y-90805000D03*
G04 #@! TO.P,REF\002A\002A,33*
X84836000Y-90805000D03*
G04 #@! TO.P,REF\002A\002A,32*
X87376000Y-88265000D03*
G04 #@! TO.P,REF\002A\002A,31*
X84836000Y-88265000D03*
G04 #@! TO.P,REF\002A\002A,30*
X87376000Y-85725000D03*
G04 #@! TO.P,REF\002A\002A,29*
X84836000Y-85725000D03*
G04 #@! TO.P,REF\002A\002A,28*
X87376000Y-83185000D03*
G04 #@! TO.P,REF\002A\002A,27*
X84836000Y-83185000D03*
G04 #@! TO.P,REF\002A\002A,26*
X87376000Y-80645000D03*
G04 #@! TO.P,REF\002A\002A,25*
X84836000Y-80645000D03*
G04 #@! TO.P,REF\002A\002A,24*
X87376000Y-78105000D03*
G04 #@! TO.P,REF\002A\002A,23*
X84836000Y-78105000D03*
G04 #@! TO.P,REF\002A\002A,22*
X87376000Y-75565000D03*
G04 #@! TO.P,REF\002A\002A,21*
X84836000Y-75565000D03*
G04 #@! TO.P,REF\002A\002A,20*
X87376000Y-73025000D03*
G04 #@! TO.P,REF\002A\002A,19*
X84836000Y-73025000D03*
G04 #@! TO.P,REF\002A\002A,18*
X87376000Y-70485000D03*
G04 #@! TO.P,REF\002A\002A,17*
X84836000Y-70485000D03*
G04 #@! TO.P,REF\002A\002A,16*
X87376000Y-67945000D03*
G04 #@! TO.P,REF\002A\002A,15*
X84836000Y-67945000D03*
G04 #@! TO.P,REF\002A\002A,14*
X87376000Y-65405000D03*
G04 #@! TO.P,REF\002A\002A,13*
X84836000Y-65405000D03*
G04 #@! TO.P,REF\002A\002A,12*
X87376000Y-62865000D03*
G04 #@! TO.P,REF\002A\002A,11*
X84836000Y-62865000D03*
G04 #@! TO.P,REF\002A\002A,10*
X87376000Y-60325000D03*
G04 #@! TO.P,REF\002A\002A,9*
X84836000Y-60325000D03*
G04 #@! TO.P,REF\002A\002A,8*
X87376000Y-57785000D03*
G04 #@! TO.P,REF\002A\002A,7*
X84836000Y-57785000D03*
G04 #@! TO.P,REF\002A\002A,6*
X87376000Y-55245000D03*
G04 #@! TO.P,REF\002A\002A,5*
X84836000Y-55245000D03*
G04 #@! TO.P,REF\002A\002A,4*
X87376000Y-52705000D03*
G04 #@! TO.P,REF\002A\002A,3*
X84836000Y-52705000D03*
G04 #@! TO.P,REF\002A\002A,2*
X87376000Y-50165000D03*
D11*
G04 #@! TO.P,REF\002A\002A,1*
X84836000Y-50165000D03*
G04 #@! TD*
D10*
G04 #@! TO.P,REF\002A\002A,84*
G04 #@! TO.N,N/C*
X92456000Y-154305000D03*
G04 #@! TO.P,REF\002A\002A,83*
X89916000Y-154305000D03*
G04 #@! TO.P,REF\002A\002A,82*
X92456000Y-151765000D03*
G04 #@! TO.P,REF\002A\002A,81*
X89916000Y-151765000D03*
G04 #@! TO.P,REF\002A\002A,80*
X92456000Y-149225000D03*
G04 #@! TO.P,REF\002A\002A,79*
X89916000Y-149225000D03*
G04 #@! TO.P,REF\002A\002A,78*
X92456000Y-146685000D03*
G04 #@! TO.P,REF\002A\002A,77*
X89916000Y-146685000D03*
G04 #@! TO.P,REF\002A\002A,76*
X92456000Y-144145000D03*
G04 #@! TO.P,REF\002A\002A,75*
X89916000Y-144145000D03*
G04 #@! TO.P,REF\002A\002A,74*
X92456000Y-141605000D03*
G04 #@! TO.P,REF\002A\002A,73*
X89916000Y-141605000D03*
G04 #@! TO.P,REF\002A\002A,72*
X92456000Y-139065000D03*
G04 #@! TO.P,REF\002A\002A,71*
X89916000Y-139065000D03*
G04 #@! TO.P,REF\002A\002A,70*
X92456000Y-136525000D03*
G04 #@! TO.P,REF\002A\002A,69*
X89916000Y-136525000D03*
G04 #@! TO.P,REF\002A\002A,68*
X92456000Y-133985000D03*
G04 #@! TO.P,REF\002A\002A,67*
X89916000Y-133985000D03*
G04 #@! TO.P,REF\002A\002A,66*
X92456000Y-131445000D03*
G04 #@! TO.P,REF\002A\002A,65*
X89916000Y-131445000D03*
G04 #@! TO.P,REF\002A\002A,64*
X92456000Y-128905000D03*
G04 #@! TO.P,REF\002A\002A,63*
X89916000Y-128905000D03*
G04 #@! TO.P,REF\002A\002A,62*
X92456000Y-126365000D03*
G04 #@! TO.P,REF\002A\002A,61*
X89916000Y-126365000D03*
G04 #@! TO.P,REF\002A\002A,60*
X92456000Y-123825000D03*
G04 #@! TO.P,REF\002A\002A,59*
X89916000Y-123825000D03*
G04 #@! TO.P,REF\002A\002A,58*
X92456000Y-121285000D03*
G04 #@! TO.P,REF\002A\002A,57*
X89916000Y-121285000D03*
G04 #@! TO.P,REF\002A\002A,56*
X92456000Y-118745000D03*
G04 #@! TO.P,REF\002A\002A,55*
X89916000Y-118745000D03*
G04 #@! TO.P,REF\002A\002A,54*
X92456000Y-116205000D03*
G04 #@! TO.P,REF\002A\002A,53*
X89916000Y-116205000D03*
G04 #@! TO.P,REF\002A\002A,52*
X92456000Y-113665000D03*
G04 #@! TO.P,REF\002A\002A,51*
X89916000Y-113665000D03*
G04 #@! TO.P,REF\002A\002A,50*
X92456000Y-111125000D03*
G04 #@! TO.P,REF\002A\002A,49*
X89916000Y-111125000D03*
G04 #@! TO.P,REF\002A\002A,48*
X92456000Y-108585000D03*
G04 #@! TO.P,REF\002A\002A,47*
X89916000Y-108585000D03*
G04 #@! TO.P,REF\002A\002A,46*
X92456000Y-106045000D03*
G04 #@! TO.P,REF\002A\002A,45*
X89916000Y-106045000D03*
G04 #@! TO.P,REF\002A\002A,44*
X92456000Y-103505000D03*
G04 #@! TO.P,REF\002A\002A,43*
X89916000Y-103505000D03*
G04 #@! TO.P,REF\002A\002A,42*
X92456000Y-100965000D03*
G04 #@! TO.P,REF\002A\002A,41*
X89916000Y-100965000D03*
G04 #@! TO.P,REF\002A\002A,40*
X92456000Y-98425000D03*
G04 #@! TO.P,REF\002A\002A,39*
X89916000Y-98425000D03*
G04 #@! TO.P,REF\002A\002A,38*
X92456000Y-95885000D03*
G04 #@! TO.P,REF\002A\002A,37*
X89916000Y-95885000D03*
G04 #@! TO.P,REF\002A\002A,36*
X92456000Y-93345000D03*
G04 #@! TO.P,REF\002A\002A,35*
X89916000Y-93345000D03*
G04 #@! TO.P,REF\002A\002A,34*
X92456000Y-90805000D03*
G04 #@! TO.P,REF\002A\002A,33*
X89916000Y-90805000D03*
G04 #@! TO.P,REF\002A\002A,32*
X92456000Y-88265000D03*
G04 #@! TO.P,REF\002A\002A,31*
X89916000Y-88265000D03*
G04 #@! TO.P,REF\002A\002A,30*
X92456000Y-85725000D03*
G04 #@! TO.P,REF\002A\002A,29*
X89916000Y-85725000D03*
G04 #@! TO.P,REF\002A\002A,28*
X92456000Y-83185000D03*
G04 #@! TO.P,REF\002A\002A,27*
X89916000Y-83185000D03*
G04 #@! TO.P,REF\002A\002A,26*
X92456000Y-80645000D03*
G04 #@! TO.P,REF\002A\002A,25*
X89916000Y-80645000D03*
G04 #@! TO.P,REF\002A\002A,24*
X92456000Y-78105000D03*
G04 #@! TO.P,REF\002A\002A,23*
X89916000Y-78105000D03*
G04 #@! TO.P,REF\002A\002A,22*
X92456000Y-75565000D03*
G04 #@! TO.P,REF\002A\002A,21*
X89916000Y-75565000D03*
G04 #@! TO.P,REF\002A\002A,20*
X92456000Y-73025000D03*
G04 #@! TO.P,REF\002A\002A,19*
X89916000Y-73025000D03*
G04 #@! TO.P,REF\002A\002A,18*
X92456000Y-70485000D03*
G04 #@! TO.P,REF\002A\002A,17*
X89916000Y-70485000D03*
G04 #@! TO.P,REF\002A\002A,16*
X92456000Y-67945000D03*
G04 #@! TO.P,REF\002A\002A,15*
X89916000Y-67945000D03*
G04 #@! TO.P,REF\002A\002A,14*
X92456000Y-65405000D03*
G04 #@! TO.P,REF\002A\002A,13*
X89916000Y-65405000D03*
G04 #@! TO.P,REF\002A\002A,12*
X92456000Y-62865000D03*
G04 #@! TO.P,REF\002A\002A,11*
X89916000Y-62865000D03*
G04 #@! TO.P,REF\002A\002A,10*
X92456000Y-60325000D03*
G04 #@! TO.P,REF\002A\002A,9*
X89916000Y-60325000D03*
G04 #@! TO.P,REF\002A\002A,8*
X92456000Y-57785000D03*
G04 #@! TO.P,REF\002A\002A,7*
X89916000Y-57785000D03*
G04 #@! TO.P,REF\002A\002A,6*
X92456000Y-55245000D03*
G04 #@! TO.P,REF\002A\002A,5*
X89916000Y-55245000D03*
G04 #@! TO.P,REF\002A\002A,4*
X92456000Y-52705000D03*
G04 #@! TO.P,REF\002A\002A,3*
X89916000Y-52705000D03*
G04 #@! TO.P,REF\002A\002A,2*
X92456000Y-50165000D03*
D11*
G04 #@! TO.P,REF\002A\002A,1*
X89916000Y-50165000D03*
G04 #@! TD*
D10*
G04 #@! TO.P,REF\002A\002A,84*
G04 #@! TO.N,N/C*
X97536000Y-154305000D03*
G04 #@! TO.P,REF\002A\002A,83*
X94996000Y-154305000D03*
G04 #@! TO.P,REF\002A\002A,82*
X97536000Y-151765000D03*
G04 #@! TO.P,REF\002A\002A,81*
X94996000Y-151765000D03*
G04 #@! TO.P,REF\002A\002A,80*
X97536000Y-149225000D03*
G04 #@! TO.P,REF\002A\002A,79*
X94996000Y-149225000D03*
G04 #@! TO.P,REF\002A\002A,78*
X97536000Y-146685000D03*
G04 #@! TO.P,REF\002A\002A,77*
X94996000Y-146685000D03*
G04 #@! TO.P,REF\002A\002A,76*
X97536000Y-144145000D03*
G04 #@! TO.P,REF\002A\002A,75*
X94996000Y-144145000D03*
G04 #@! TO.P,REF\002A\002A,74*
X97536000Y-141605000D03*
G04 #@! TO.P,REF\002A\002A,73*
X94996000Y-141605000D03*
G04 #@! TO.P,REF\002A\002A,72*
X97536000Y-139065000D03*
G04 #@! TO.P,REF\002A\002A,71*
X94996000Y-139065000D03*
G04 #@! TO.P,REF\002A\002A,70*
X97536000Y-136525000D03*
G04 #@! TO.P,REF\002A\002A,69*
X94996000Y-136525000D03*
G04 #@! TO.P,REF\002A\002A,68*
X97536000Y-133985000D03*
G04 #@! TO.P,REF\002A\002A,67*
X94996000Y-133985000D03*
G04 #@! TO.P,REF\002A\002A,66*
X97536000Y-131445000D03*
G04 #@! TO.P,REF\002A\002A,65*
X94996000Y-131445000D03*
G04 #@! TO.P,REF\002A\002A,64*
X97536000Y-128905000D03*
G04 #@! TO.P,REF\002A\002A,63*
X94996000Y-128905000D03*
G04 #@! TO.P,REF\002A\002A,62*
X97536000Y-126365000D03*
G04 #@! TO.P,REF\002A\002A,61*
X94996000Y-126365000D03*
G04 #@! TO.P,REF\002A\002A,60*
X97536000Y-123825000D03*
G04 #@! TO.P,REF\002A\002A,59*
X94996000Y-123825000D03*
G04 #@! TO.P,REF\002A\002A,58*
X97536000Y-121285000D03*
G04 #@! TO.P,REF\002A\002A,57*
X94996000Y-121285000D03*
G04 #@! TO.P,REF\002A\002A,56*
X97536000Y-118745000D03*
G04 #@! TO.P,REF\002A\002A,55*
X94996000Y-118745000D03*
G04 #@! TO.P,REF\002A\002A,54*
X97536000Y-116205000D03*
G04 #@! TO.P,REF\002A\002A,53*
X94996000Y-116205000D03*
G04 #@! TO.P,REF\002A\002A,52*
X97536000Y-113665000D03*
G04 #@! TO.P,REF\002A\002A,51*
X94996000Y-113665000D03*
G04 #@! TO.P,REF\002A\002A,50*
X97536000Y-111125000D03*
G04 #@! TO.P,REF\002A\002A,49*
X94996000Y-111125000D03*
G04 #@! TO.P,REF\002A\002A,48*
X97536000Y-108585000D03*
G04 #@! TO.P,REF\002A\002A,47*
X94996000Y-108585000D03*
G04 #@! TO.P,REF\002A\002A,46*
X97536000Y-106045000D03*
G04 #@! TO.P,REF\002A\002A,45*
X94996000Y-106045000D03*
G04 #@! TO.P,REF\002A\002A,44*
X97536000Y-103505000D03*
G04 #@! TO.P,REF\002A\002A,43*
X94996000Y-103505000D03*
G04 #@! TO.P,REF\002A\002A,42*
X97536000Y-100965000D03*
G04 #@! TO.P,REF\002A\002A,41*
X94996000Y-100965000D03*
G04 #@! TO.P,REF\002A\002A,40*
X97536000Y-98425000D03*
G04 #@! TO.P,REF\002A\002A,39*
X94996000Y-98425000D03*
G04 #@! TO.P,REF\002A\002A,38*
X97536000Y-95885000D03*
G04 #@! TO.P,REF\002A\002A,37*
X94996000Y-95885000D03*
G04 #@! TO.P,REF\002A\002A,36*
X97536000Y-93345000D03*
G04 #@! TO.P,REF\002A\002A,35*
X94996000Y-93345000D03*
G04 #@! TO.P,REF\002A\002A,34*
X97536000Y-90805000D03*
G04 #@! TO.P,REF\002A\002A,33*
X94996000Y-90805000D03*
G04 #@! TO.P,REF\002A\002A,32*
X97536000Y-88265000D03*
G04 #@! TO.P,REF\002A\002A,31*
X94996000Y-88265000D03*
G04 #@! TO.P,REF\002A\002A,30*
X97536000Y-85725000D03*
G04 #@! TO.P,REF\002A\002A,29*
X94996000Y-85725000D03*
G04 #@! TO.P,REF\002A\002A,28*
X97536000Y-83185000D03*
G04 #@! TO.P,REF\002A\002A,27*
X94996000Y-83185000D03*
G04 #@! TO.P,REF\002A\002A,26*
X97536000Y-80645000D03*
G04 #@! TO.P,REF\002A\002A,25*
X94996000Y-80645000D03*
G04 #@! TO.P,REF\002A\002A,24*
X97536000Y-78105000D03*
G04 #@! TO.P,REF\002A\002A,23*
X94996000Y-78105000D03*
G04 #@! TO.P,REF\002A\002A,22*
X97536000Y-75565000D03*
G04 #@! TO.P,REF\002A\002A,21*
X94996000Y-75565000D03*
G04 #@! TO.P,REF\002A\002A,20*
X97536000Y-73025000D03*
G04 #@! TO.P,REF\002A\002A,19*
X94996000Y-73025000D03*
G04 #@! TO.P,REF\002A\002A,18*
X97536000Y-70485000D03*
G04 #@! TO.P,REF\002A\002A,17*
X94996000Y-70485000D03*
G04 #@! TO.P,REF\002A\002A,16*
X97536000Y-67945000D03*
G04 #@! TO.P,REF\002A\002A,15*
X94996000Y-67945000D03*
G04 #@! TO.P,REF\002A\002A,14*
X97536000Y-65405000D03*
G04 #@! TO.P,REF\002A\002A,13*
X94996000Y-65405000D03*
G04 #@! TO.P,REF\002A\002A,12*
X97536000Y-62865000D03*
G04 #@! TO.P,REF\002A\002A,11*
X94996000Y-62865000D03*
G04 #@! TO.P,REF\002A\002A,10*
X97536000Y-60325000D03*
G04 #@! TO.P,REF\002A\002A,9*
X94996000Y-60325000D03*
G04 #@! TO.P,REF\002A\002A,8*
X97536000Y-57785000D03*
G04 #@! TO.P,REF\002A\002A,7*
X94996000Y-57785000D03*
G04 #@! TO.P,REF\002A\002A,6*
X97536000Y-55245000D03*
G04 #@! TO.P,REF\002A\002A,5*
X94996000Y-55245000D03*
G04 #@! TO.P,REF\002A\002A,4*
X97536000Y-52705000D03*
G04 #@! TO.P,REF\002A\002A,3*
X94996000Y-52705000D03*
G04 #@! TO.P,REF\002A\002A,2*
X97536000Y-50165000D03*
D11*
G04 #@! TO.P,REF\002A\002A,1*
X94996000Y-50165000D03*
G04 #@! TD*
D12*
G04 #@! TO.N,*
X100076000Y-154305000D02*
X100076000Y-50165000D01*
X72136000Y-154305000D02*
X72136000Y-50165000D01*
X89916000Y-60325000D02*
X97536000Y-60325000D01*
X89916000Y-62865000D02*
X97536000Y-62865000D01*
X89916000Y-65405000D02*
X97536000Y-65405000D01*
X89916000Y-67945000D02*
X97536000Y-67945000D01*
X89916000Y-70485000D02*
X97536000Y-70485000D01*
X89916000Y-73025000D02*
X97536000Y-73025000D01*
X89916000Y-75565000D02*
X97536000Y-75565000D01*
X89916000Y-78105000D02*
X97536000Y-78105000D01*
X89916000Y-80645000D02*
X97536000Y-80645000D01*
X89916000Y-83185000D02*
X97536000Y-83185000D01*
X89916000Y-85725000D02*
X97536000Y-85725000D01*
X89916000Y-88265000D02*
X97536000Y-88265000D01*
X89916000Y-90805000D02*
X97536000Y-90805000D01*
X89916000Y-93345000D02*
X97536000Y-93345000D01*
X89916000Y-95885000D02*
X97536000Y-95885000D01*
X89916000Y-108585000D02*
X97536000Y-108585000D01*
X89916000Y-111125000D02*
X97536000Y-111125000D01*
X89916000Y-113665000D02*
X97536000Y-113665000D01*
X89916000Y-116205000D02*
X97536000Y-116205000D01*
X89916000Y-118745000D02*
X97536000Y-118745000D01*
X89916000Y-121285000D02*
X97536000Y-121285000D01*
X89916000Y-123825000D02*
X97536000Y-123825000D01*
X89916000Y-126365000D02*
X97536000Y-126365000D01*
X89916000Y-128905000D02*
X97536000Y-128905000D01*
X89916000Y-131445000D02*
X97536000Y-131445000D01*
X89916000Y-133985000D02*
X97536000Y-133985000D01*
X89916000Y-136525000D02*
X97536000Y-136525000D01*
X89916000Y-139065000D02*
X97536000Y-139065000D01*
X89916000Y-141605000D02*
X97536000Y-141605000D01*
X89916000Y-144145000D02*
X97536000Y-144145000D01*
X87376000Y-144145000D02*
X87376000Y-60325000D01*
X84836000Y-60325000D02*
X84836000Y-144145000D01*
X82296000Y-144145000D02*
X74676000Y-144145000D01*
X74676000Y-141605000D02*
X82296000Y-141605000D01*
X82296000Y-139065000D02*
X74676000Y-139065000D01*
X74676000Y-136525000D02*
X82296000Y-136525000D01*
X82296000Y-133985000D02*
X74676000Y-133985000D01*
X74676000Y-131445000D02*
X82296000Y-131445000D01*
X82296000Y-128905000D02*
X74676000Y-128905000D01*
X74676000Y-126365000D02*
X82296000Y-126365000D01*
X82296000Y-123825000D02*
X74676000Y-123825000D01*
X74676000Y-121285000D02*
X82296000Y-121285000D01*
X82296000Y-118745000D02*
X74676000Y-118745000D01*
X74676000Y-116205000D02*
X82296000Y-116205000D01*
X82296000Y-113665000D02*
X74676000Y-113665000D01*
X74676000Y-111125000D02*
X82296000Y-111125000D01*
X82296000Y-108585000D02*
X74676000Y-108585000D01*
X74676000Y-95885000D02*
X82296000Y-95885000D01*
X82296000Y-93345000D02*
X74676000Y-93345000D01*
X74676000Y-90805000D02*
X82296000Y-90805000D01*
X82296000Y-88265000D02*
X74676000Y-88265000D01*
X74676000Y-85725000D02*
X82296000Y-85725000D01*
X82296000Y-83185000D02*
X74676000Y-83185000D01*
X74676000Y-80645000D02*
X82296000Y-80645000D01*
X82296000Y-78105000D02*
X74676000Y-78105000D01*
X74676000Y-75565000D02*
X82296000Y-75565000D01*
X82296000Y-73025000D02*
X74676000Y-73025000D01*
X74676000Y-70485000D02*
X82296000Y-70485000D01*
X82296000Y-67945000D02*
X74676000Y-67945000D01*
X74676000Y-65405000D02*
X82296000Y-65405000D01*
X82296000Y-62865000D02*
X74676000Y-62865000D01*
X74676000Y-60325000D02*
X82296000Y-60325000D01*
X102616000Y-154305000D02*
X102616000Y-50165000D01*
X69596000Y-153102919D02*
X69596000Y-50165000D01*
X69596000Y-154305000D02*
X69596000Y-153102919D01*
G04 #@! TD*
M02*
